<svg width="16" height="16" viewBox="0 0 16 16" fill="none" xmlns="http://www.w3.org/2000/svg">
<path fill-rule="evenodd" clip-rule="evenodd" d="M8.00029 0C8.57935 0 9.05296 0.494658 9.05296 1.09945V5.18646C9.05296 5.79125 8.57935 6.28591 8.00029 6.28591C7.42123 6.28591 6.94762 5.79125 6.94762 5.18646V1.09945C6.94762 0.494658 7.42123 0 8.00029 0Z" fill="#00A0E4"/>
<path fill-rule="evenodd" clip-rule="evenodd" d="M0.0512454 6.03198C0.230236 5.45673 0.827174 5.13909 1.37772 5.32603L5.09942 6.58903C5.65019 6.77597 5.95432 7.3992 5.77533 7.97445C5.59634 8.54946 4.9994 8.8671 4.44885 8.68039L0.727156 7.4174C0.176607 7.23045 -0.127519 6.60699 0.0512454 6.03198Z" fill="#00A0E4"/>
<path fill-rule="evenodd" clip-rule="evenodd" d="M3.0877 15.7912C2.61929 15.4357 2.51452 14.7447 2.85485 14.2554L5.15503 10.9488C5.49536 10.4596 6.15702 10.3502 6.62543 10.7056C7.09383 11.0611 7.1986 11.7521 6.85827 12.2414L4.55809 15.548C4.21776 16.0372 3.55611 16.1466 3.0877 15.7912Z" fill="#00A0E4"/>
<path fill-rule="evenodd" clip-rule="evenodd" d="M12.9124 15.7909C12.444 16.1464 11.7824 16.037 11.442 15.5477L9.14184 12.2411C8.80151 11.7519 8.90628 11.0608 9.37469 10.7056C9.84309 10.3502 10.5047 10.4596 10.8451 10.9488L13.1453 14.2552C13.4856 14.7444 13.3808 15.4355 12.9124 15.7909Z" fill="#00A0E4"/>
<path fill-rule="evenodd" clip-rule="evenodd" d="M15.9487 6.03173C16.1274 6.60675 15.8233 7.23021 15.2728 7.41715L11.5511 8.67991C11.0003 8.86686 10.4036 8.54922 10.2246 7.9742C10.0456 7.39895 10.3497 6.77549 10.9005 6.58879L14.6222 5.32579C15.1728 5.13885 15.7697 5.45648 15.9487 6.03173Z" fill="#00A0E4"/>
</svg>
