<svg width="24" height="24" viewBox="0 0 24 24" fill="none" xmlns="http://www.w3.org/2000/svg">
<path fill-rule="evenodd" clip-rule="evenodd" d="M11.9999 0C12.8685 0 13.5789 0.741982 13.5789 1.64916V7.77965C13.5789 8.68683 12.8685 9.42881 11.9999 9.42881C11.1313 9.42881 10.4209 8.68683 10.4209 7.77965V1.64916C10.4209 0.741982 11.1313 0 11.9999 0Z" fill="white"/>
<path fill-rule="evenodd" clip-rule="evenodd" d="M0.0768678 9.04769C0.345353 8.18482 1.24075 7.70836 2.06657 7.98877L7.64909 9.88326C8.47525 10.1637 8.93143 11.0985 8.66295 11.9614C8.39446 12.8239 7.49906 13.3003 6.67324 13.0203L1.09073 11.1258C0.264909 10.8454 -0.191278 9.9102 0.0768678 9.04769Z" fill="white"/>
<path fill-rule="evenodd" clip-rule="evenodd" d="M4.63116 23.6867C3.92856 23.1535 3.7714 22.1169 4.2819 21.3831L7.73215 16.4232C8.24264 15.6894 9.23512 15.5252 9.93773 16.0584C10.6403 16.5916 10.7975 17.6282 10.287 18.362L6.83674 23.3219C6.32625 24.0557 5.33377 24.2199 4.63116 23.6867Z" fill="white"/>
<path fill-rule="evenodd" clip-rule="evenodd" d="M19.3691 23.6863C18.6665 24.2195 17.674 24.0554 17.1635 23.3215L13.7133 18.3616C13.2028 17.6278 13.36 16.5912 14.0626 16.0584C14.7652 15.5252 15.7576 15.6894 16.2681 16.4232L19.7184 21.3827C20.2289 22.1166 20.0717 23.1531 19.3691 23.6863Z" fill="white"/>
<path fill-rule="evenodd" clip-rule="evenodd" d="M23.9231 9.04738C24.1913 9.9099 23.7351 10.8451 22.9093 11.1255L17.3267 13.0196C16.5006 13.3 15.6055 12.8236 15.337 11.9611C15.0686 11.0982 15.5247 10.163 16.3509 9.88295L21.9334 7.98847C22.7592 7.70806 23.6546 8.18451 23.9231 9.04738Z" fill="white"/>
</svg>
