<svg width="16" height="16" viewBox="0 0 16 16" fill="none" xmlns="http://www.w3.org/2000/svg">
<path d="M14.7507 3.74115C14.1571 2.81585 13.4336 2.05931 12.5919 1.47153C11.7502 0.883763 10.7845 0.464757 9.70359 0.214517C7.92868 -0.19576 6.20102 -0.0124447 4.53833 0.720816C3.61986 1.12527 2.80476 1.68686 2.10483 2.39684C1.23067 3.28432 0.598667 4.2911 0.211788 5.41426C0.208835 5.4259 0.205882 5.43463 0.202929 5.44627C0.188162 5.48701 0.176349 5.52484 0.164536 5.56557C-0.231202 6.86333 0.137957 7.58204 0.719751 6.98263C0.743377 6.95644 0.767003 6.93025 0.787676 6.90697C0.796535 6.89533 0.805395 6.8866 0.814255 6.87497C1.49351 6.03404 2.5744 5.33279 2.5744 5.33279C2.84906 5.14366 3.13552 4.96907 3.4338 4.80321C3.77343 4.60826 4.12782 4.42786 4.45859 4.30564C4.45859 4.30564 4.76573 4.16598 4.84842 3.74406C4.84842 3.73533 4.85137 3.72951 4.85433 3.72078C4.85433 3.71787 4.85433 3.71205 4.85433 3.70914C4.91044 3.35706 5.29141 2.39102 6.3723 2.32992C6.71193 2.28336 7.04565 2.34446 7.34393 2.48122C7.86666 2.72564 8.26535 3.21448 8.34509 3.80226C8.41006 4.27073 8.29488 4.71301 8.05271 5.06218C8.0409 5.08255 8.02614 5.10292 8.00842 5.12329C8.00251 5.12911 7.99956 5.13493 7.99365 5.14075C7.78987 5.39972 7.51227 5.60049 7.1815 5.71106C6.98363 5.7838 6.77986 5.82163 6.58789 5.82454C6.46681 5.83909 6.33096 5.82454 6.19806 5.79253C6.04449 5.76344 5.90569 5.71106 5.7846 5.64414C5.57492 5.54811 5.40659 5.43754 5.34457 5.38226C5.29436 5.33861 5.2412 5.31242 5.191 5.30078C5.07582 5.28332 4.98427 5.30078 4.91634 5.33279C4.87795 5.35025 4.84842 5.36771 4.82775 5.38226C4.56786 5.59467 4.32274 5.81872 4.08943 6.0515C3.47515 6.68583 2.96128 7.40745 2.71911 7.76244C2.59212 7.96322 2.47104 8.16981 2.35586 8.38222C2.24954 8.58009 2.15209 8.77795 2.06053 8.97873C1.91878 9.29589 1.78293 9.63924 1.66184 10.0059C1.65594 10.0233 1.65003 10.0408 1.64412 10.0553C1.63526 10.0786 1.62936 10.1019 1.62345 10.1252C1.61754 10.1484 1.60868 10.1717 1.60278 10.195C0.858554 12.7032 2.19934 14.1523 3.31863 12.6392C3.38064 12.5432 3.44266 12.4472 3.50764 12.3541C4.68304 10.3492 7.09586 8.90307 7.09586 8.90307C7.24352 8.80996 7.39118 8.71976 7.54475 8.63537C7.54475 8.63537 7.55657 8.62955 7.57428 8.61791C7.98774 8.38513 8.41301 8.17563 8.8501 7.99231C9.23993 7.82064 9.65339 7.66351 9.99596 7.57913C9.99596 7.57913 10.3976 7.47729 10.5069 6.98845C10.5837 6.63928 10.8406 6.12716 11.4224 5.85364C11.5582 5.7838 11.703 5.73434 11.8447 5.70233C12.0012 5.66741 12.1578 5.65577 12.3084 5.66159C12.4058 5.66159 12.4915 5.67032 12.5624 5.69069C13.3007 5.83036 13.9031 6.42686 13.9917 7.2125C14.0981 8.16399 13.4277 9.02528 12.4649 9.14458C11.9865 9.20278 11.5523 9.10093 11.1832 8.82451C10.7668 8.65283 10.4478 8.7634 10.3326 8.81578C9.96939 9.01073 9.62385 9.22605 9.29013 9.46465C8.6729 9.91858 8.1797 10.39 7.98479 10.5849C7.55657 11.0214 7.17855 11.484 6.85073 11.9758C6.83301 12.002 6.8153 12.0282 6.79758 12.0573C6.79167 12.0631 6.78872 12.0718 6.78281 12.0776C6.44614 12.6072 6.08584 13.2881 5.79051 14.1086C5.76689 14.1727 5.74621 14.2367 5.72554 14.3007C5.40954 15.354 6.0947 15.773 6.88617 15.9272C6.88617 15.9272 7.50636 16.0465 8.4012 15.9796C8.45436 15.9738 8.50161 15.9709 8.54 15.968C8.76445 15.9418 8.99185 15.9156 9.2163 15.8807C10.7609 15.6217 12.1253 14.9874 13.2889 13.9544C14.7566 12.6567 15.6397 11.0359 15.9143 9.11548C16.189 7.18922 15.8021 5.38517 14.7448 3.74115H14.7507Z" fill="#FFC40C"/>
</svg>
