<svg width="24" height="24" viewBox="0 0 24 24" fill="none" xmlns="http://www.w3.org/2000/svg">
<path d="M22.1265 5.61173C21.236 4.22377 20.1507 3.08896 18.8882 2.2073C17.6257 1.32564 16.1771 0.697135 14.5558 0.321775C11.8934 -0.29364 9.30189 -0.018667 6.80785 1.08122C5.43016 1.68791 4.2075 2.53029 3.15762 3.59526C1.84636 4.92648 0.898366 6.43664 0.318049 8.1214C0.313619 8.13886 0.309189 8.15195 0.304759 8.16941C0.28261 8.23051 0.26489 8.28725 0.247171 8.34836C-0.346436 10.295 0.207301 11.3731 1.07999 10.4739C1.11543 10.4347 1.15087 10.3954 1.18188 10.3605C1.19517 10.343 1.20846 10.3299 1.22175 10.3124C2.24063 9.05107 3.86197 7.99919 3.86197 7.99919C4.27395 7.71549 4.70365 7.45361 5.15107 7.20482C5.66051 6.91239 6.1921 6.64178 6.68825 6.45847C6.68825 6.45847 7.14896 6.24896 7.27299 5.61609C7.27299 5.603 7.27742 5.59427 7.28185 5.58117C7.28185 5.57681 7.28185 5.56808 7.28185 5.56371C7.36602 5.03559 7.93748 3.58653 9.55882 3.49487C10.0683 3.42504 10.5688 3.5167 11.0163 3.72183C11.8004 4.08846 12.3984 4.82172 12.518 5.70338C12.6155 6.40609 12.4427 7.06952 12.0794 7.59327C12.0617 7.62383 12.0396 7.65438 12.013 7.68493C12.0041 7.69366 11.9997 7.70239 11.9908 7.71112C11.6852 8.09957 11.2688 8.40073 10.7726 8.56659C10.4758 8.67571 10.1701 8.73245 9.88221 8.73681C9.70058 8.75864 9.4968 8.73681 9.29746 8.6888C9.0671 8.64515 8.8589 8.56659 8.67727 8.4662C8.36275 8.32217 8.11025 8.15631 8.01722 8.07339C7.94191 8.00792 7.86217 7.96863 7.78686 7.95118C7.6141 7.92499 7.47677 7.95118 7.37488 7.99919C7.31729 8.02537 7.27299 8.05156 7.24199 8.07339C6.85215 8.392 6.48447 8.72808 6.13451 9.07725C5.21309 10.0287 4.44229 11.1112 4.07904 11.6437C3.88855 11.9448 3.70692 12.2547 3.53416 12.5733C3.37468 12.8701 3.22849 13.1669 3.09117 13.4681C2.87853 13.9438 2.67476 14.4589 2.49313 15.0088C2.48427 15.035 2.47541 15.0612 2.46655 15.083C2.45326 15.1179 2.4444 15.1528 2.43554 15.1878C2.42668 15.2227 2.41339 15.2576 2.40453 15.2925C1.2882 19.0548 3.29937 21.2284 4.97831 18.9588C5.07133 18.8148 5.16436 18.6707 5.26182 18.5311C7.02492 15.5238 10.6441 13.3546 10.6441 13.3546C10.8656 13.2149 11.0871 13.0796 11.3175 12.9531C11.3175 12.9531 11.3352 12.9443 11.3618 12.9269C11.982 12.5777 12.6199 12.2634 13.2755 11.9885C13.8603 11.731 14.4804 11.4953 14.9943 11.3687C14.9943 11.3687 15.5968 11.2159 15.7607 10.4827C15.8759 9.95891 16.2613 9.19074 17.134 8.78046C17.3377 8.67571 17.5548 8.60151 17.7674 8.5535C18.0022 8.50112 18.237 8.48366 18.4629 8.49239C18.6091 8.49239 18.7376 8.50549 18.8439 8.53604C19.9514 8.74554 20.8551 9.64029 20.988 10.8187C21.1474 12.246 20.1419 13.5379 18.6977 13.7169C17.9801 13.8042 17.3289 13.6514 16.7751 13.2368C16.1505 12.9792 15.6721 13.1451 15.4993 13.2237C14.9544 13.5161 14.4361 13.8391 13.9356 14.197C13.0097 14.8779 12.2699 15.5849 11.9776 15.8774C11.3352 16.5321 10.7682 17.226 10.2765 17.9637C10.2499 18.003 10.2233 18.0422 10.1967 18.0859C10.1879 18.0946 10.1834 18.1077 10.1746 18.1164C9.66957 18.9108 9.12912 19.9321 8.68613 21.163C8.65069 21.259 8.61968 21.355 8.58867 21.451C8.11468 23.031 9.14241 23.6595 10.3296 23.8909C10.3296 23.8909 11.2599 24.0698 12.6022 23.9694C12.6819 23.9607 12.7528 23.9563 12.8104 23.952C13.147 23.9127 13.4881 23.8734 13.8248 23.821C16.1417 23.4326 18.1883 22.4811 19.9337 20.9316C22.1353 18.985 23.4599 16.5539 23.8718 13.6732C24.2838 10.7838 23.7035 8.07775 22.1176 5.61173H22.1265Z" fill="white"/>
</svg>
