<svg width="41" height="41" viewBox="0 0 41 41" fill="none" xmlns="http://www.w3.org/2000/svg">
<path d="M20.5 41C31.8218 41 41 31.8218 41 20.5C41 9.17816 31.8218 0 20.5 0C9.17816 0 0 9.17816 0 20.5C0 31.8218 9.17816 41 20.5 41Z" fill="#FF0000"/>
<path fill-rule="evenodd" clip-rule="evenodd" d="M34 12.763V24.1508C34 25.1711 33.1716 25.9999 32.1512 25.9999H8.84936C7.82896 25.9999 7.00049 25.1711 7.00049 24.1508V12.763C7.00049 11.742 7.82896 10.9132 8.84936 10.9132H32.1512C33.1716 10.9132 34 11.742 34 12.763Z" fill="#EBEBEB"/>
<path d="M28 28H13.0012V30.7248H28V28Z" fill="#EBEBEB"/>
<path d="M31 13H10V23H31V13Z" fill="#FF0000"/>
<path d="M22.9768 25.9136H18.0005V29.5361H22.9768V25.9136Z" fill="#EBEBEB"/>
</svg>
