<svg width="16" height="16" viewBox="0 0 16 16" fill="none" xmlns="http://www.w3.org/2000/svg">
<path fill-rule="evenodd" clip-rule="evenodd" d="M11.0842 0.616613C9.67063 0.935751 8.60601 2.23575 8.60601 3.79191C8.60601 3.82564 8.61385 3.86516 8.61515 3.89866C10.8502 4.38999 11.9775 5.94615 11.9775 7.99989C11.9775 10.3067 10.1516 12.1775 7.91956 12.1775C5.68778 12.1775 3.60273 10.2528 3.60273 7.39913C3.60273 3.91519 6.49201 0.64721 10.6094 0.543585C10.6837 0.541798 10.8012 0.544701 10.9214 0.550284C10.0166 0.194967 9.03121 0 8.00033 0C3.58205 0 -0.000213623 3.58176 -0.000213623 7.99989C-0.000213623 12.4185 3.58205 16 8.00033 16C12.418 16 15.9998 12.4185 15.9998 7.99989C15.9998 4.67518 13.9709 1.82349 11.0842 0.616613Z" fill="#ED1B2D"/>
</svg>
