<svg width="24" height="24" viewBox="0 0 24 24" fill="none" xmlns="http://www.w3.org/2000/svg">
<path fill-rule="evenodd" clip-rule="evenodd" d="M16.6267 0.92492C14.5063 1.40363 12.9093 3.35363 12.9093 5.68787C12.9093 5.73845 12.9211 5.79775 12.923 5.848C16.2756 6.58498 17.9666 8.91922 17.9666 11.9998C17.9666 15.46 15.2277 18.2662 11.8797 18.2662C8.53198 18.2662 5.40442 15.3793 5.40442 11.0987C5.40442 5.87278 9.73833 0.970814 15.9144 0.815377C16.0258 0.812697 16.2021 0.817051 16.3824 0.825426C15.0252 0.29245 13.5471 0 12.0008 0C5.37339 0 0 5.37264 0 11.9998C0 18.6277 5.37339 24 12.0008 24C18.6273 24 24 18.6277 24 11.9998C24 7.01277 20.9567 2.73523 16.6267 0.92492Z" fill="white"/>
</svg>
