<svg width="41" height="41" viewBox="0 0 41 41" fill="none" xmlns="http://www.w3.org/2000/svg">
<circle cx="20.5" cy="20.5" r="20.5" fill="#FF0000"/>
<path d="M22.352 25.5317C21.3293 24.5094 19.6716 24.5094 18.6488 25.5317C17.6261 26.554 17.6261 28.211 18.6488 29.2333C19.6716 30.2556 21.3293 30.2556 22.352 29.2333C23.3748 28.211 23.3748 26.554 22.352 25.5317ZM29.4494 22.139L26.8265 24.7608C23.3332 21.269 17.6686 21.269 14.1753 24.7608L11.5524 22.139C16.4944 17.1992 24.5074 17.1992 29.4494 22.139ZM31.3001 20.2883C25.3353 14.3261 15.6647 14.3261 9.69991 20.2883L7 17.5895C14.456 10.1368 26.544 10.1368 34 17.5895L31.3001 20.2883Z" fill="white"/>
</svg>
