<svg width="200" height="45" viewBox="0 0 200 45" fill="none" xmlns="http://www.w3.org/2000/svg">
<path fill-rule="evenodd" clip-rule="evenodd" d="M81.9016 11.9986L92.8247 0.829345L93.2472 0.475893L93.7238 0.214823L94.239 0.05544L94.7812 0H106.906L107.717 0.124754L108.445 0.475893L109.039 1.02798L109.463 1.74645L109.66 2.56192L109.619 3.38196L109.35 4.15586L108.863 4.83039L98.1044 15.8311C93.3421 20.7008 85.6203 20.7008 80.858 15.8311L69.5689 4.28986H58.2573L75.6958 22.1215L73.2988 24.5701L54.7985 5.6528L54.3105 4.97827L54.0417 4.20436L54.001 3.38427L54.1999 2.57111L54.6222 1.85039L55.2187 1.30056L55.9439 0.947162L56.7549 0.82472H69.8265L70.3687 0.877848L70.886 1.03954L71.3627 1.29824L71.7828 1.6517L81.9016 11.9986ZM84.3845 14.3595C87.8229 16.8614 92.6237 16.5333 95.7075 13.3824L105.406 3.46514H95.0387L84.3845 14.3595Z" fill="#ED1B24"/>
<path fill-rule="evenodd" clip-rule="evenodd" d="M58.2574 39.9577H69.569L80.8581 28.4165C85.6204 23.5468 93.3422 23.5468 98.1045 28.4165L108.863 39.4172L109.351 40.0917L109.619 40.8656L109.66 41.6856L109.464 42.5011L109.039 43.2196L108.445 43.7717L107.717 44.1228L106.906 44.2476H94.7813L94.2391 44.1921L93.7239 44.0327L93.2473 43.7717L92.8248 43.4182L81.9017 32.2489L71.7829 42.5959L71.3628 42.9493L70.8861 43.208L70.3687 43.3697L69.8266 43.4228H56.755L55.944 43.3004L55.2188 42.947L54.6223 42.3972L54.2 41.6764L54.0011 40.8633L54.0418 40.0432L54.3106 39.2693L54.7986 38.5948L73.2989 19.6774L75.6959 22.1261L58.2574 39.9577ZM84.3846 29.888L95.0388 40.7824H105.406L95.7075 30.8652C92.6238 27.7142 87.823 27.3862 84.3846 29.888Z" fill="#ED1B24"/>
<path fill-rule="evenodd" clip-rule="evenodd" d="M120.496 6.97913C128.338 6.97913 134.702 13.4866 134.702 21.5026C134.702 29.5209 128.338 36.0285 120.496 36.0285C112.657 36.0285 106.293 29.5209 106.293 21.5026C106.293 13.4866 112.657 6.97913 120.496 6.97913ZM120.496 10.4443C114.528 10.4443 109.682 15.3994 109.682 21.5026C109.682 27.6082 114.528 32.5633 120.496 32.5633C126.467 32.5633 131.313 27.6082 131.313 21.5026C131.313 15.3994 126.467 10.4443 120.496 10.4443Z" fill="#ED1B24"/>
<path fill-rule="evenodd" clip-rule="evenodd" d="M166.047 25.9426C166.178 25.9426 166.303 26.0096 166.377 26.1182C166.454 26.2291 166.472 26.37 166.427 26.497C164.432 32.0574 159.209 36.0285 153.082 36.0285C145.243 36.0285 138.879 29.5209 138.879 21.5026C138.879 13.4866 145.243 6.97913 153.082 6.97913C159.665 6.97913 165.207 11.5647 166.818 17.7811C166.849 17.9035 166.822 18.0352 166.746 18.1369C166.669 18.2362 166.551 18.2962 166.427 18.2962C165.681 18.2962 164.328 18.2962 163.732 18.2962C163.558 18.2962 163.404 18.183 163.348 18.0121C161.918 13.616 157.86 10.4443 153.082 10.4443C147.113 10.4443 142.267 15.3994 142.267 21.5026C142.267 27.6082 147.113 32.5633 153.082 32.5633C157.417 32.5633 161.161 29.9506 162.887 26.1829C162.952 26.0373 163.095 25.9426 163.251 25.9426C163.833 25.9426 165.252 25.9426 166.047 25.9426Z" fill="#ED1B24"/>
<path fill-rule="evenodd" clip-rule="evenodd" d="M183.033 10.446H169.858C169.635 10.446 169.454 10.2628 169.454 10.0337V7.39533C169.454 7.16624 169.635 6.98303 169.858 6.98303H199.596C199.819 6.98303 200 7.16624 200 7.39533V10.0337C200 10.2628 199.819 10.446 199.596 10.446H186.422V33.8894C186.422 34.1185 186.242 34.3018 186.018 34.3018H183.435C183.214 34.3018 183.033 34.1185 183.033 33.8894V10.446Z" fill="#ED1B24"/>
<path fill-rule="evenodd" clip-rule="evenodd" d="M20.3211 22.1197C20.3211 21.0594 21.1561 20.2003 22.1975 20.2003C28.0245 20.2003 45.7806 20.2003 51.6162 20.2003C52.6491 20.2003 53.4926 21.0594 53.4926 22.1197C53.4926 22.1199 53.4926 22.1202 53.4926 22.1204C53.4926 23.1804 52.6491 24.0399 51.6162 24.0399C45.7806 24.0399 28.0245 24.0399 22.1975 24.0399C21.1561 24.0399 20.3211 23.1804 20.3211 22.1204V22.1197Z" fill="#ED1B24"/>
<path fill-rule="evenodd" clip-rule="evenodd" d="M40.2495 27.9468C40.3771 27.9468 40.4978 28.0067 40.5736 28.1125C40.6495 28.2183 40.6735 28.3558 40.6356 28.4793C37.9836 37.1048 30.0999 43.3712 20.7919 43.3712C9.31817 43.3712 0 33.8429 0 22.1071C0 10.3748 9.31817 0.846497 20.7919 0.846497C30.0999 0.846497 37.9836 7.11292 40.6356 15.7385C40.6735 15.8619 40.6495 15.9994 40.5736 16.1052C40.4978 16.211 40.3771 16.2709 40.2495 16.2709C39.4839 16.2709 38.1147 16.2709 37.5215 16.2709C37.3525 16.2709 37.2008 16.1652 37.1421 15.9994C34.7039 9.18291 28.2997 4.31296 20.7919 4.31296C11.1873 4.31296 3.38991 12.2861 3.38991 22.1071C3.38991 31.9316 11.1873 39.9048 20.7919 39.9048C28.2997 39.9048 34.704 35.0348 37.1457 28.2183C37.2009 28.0561 37.3525 27.9468 37.5215 27.9468C38.1147 27.9468 39.4839 27.9468 40.2495 27.9468Z" fill="#ED1B24"/>
</svg>
